<svg width="261" height="192" viewBox="0 0 261 192" fill="none" xmlns="http://www.w3.org/2000/svg">
<path d="M130.349 0C171.457 0 198.023 27.3385 202.678 57.1562C215.355 59.4888 228.084 66.241 238.244 75.8952C251.14 88.149 260.697 105.825 260.697 126.918C260.697 162.156 232.132 190.721 196.895 190.721H177.343V172.884C206.323 172.884 240.116 164.075 240.116 126.918C240.116 112.338 233.553 99.8276 224.068 90.814C214.413 81.6402 202.528 76.8371 193.122 76.8371C187.439 76.8371 182.831 72.2298 182.831 66.5464C182.831 44.8655 164.536 20.5814 130.349 20.5814C96.082 20.5814 77.8662 44.2575 77.8662 66.5464C77.8662 72.2298 73.2589 76.8371 67.5755 76.8371C59.5686 76.8371 47.5847 80.8663 37.5878 89.5719C27.885 98.0215 20.5814 110.407 20.5814 126.918C20.5814 167.903 59.7375 172.884 90.215 172.884V190.721H63.8023C28.5652 190.721 0 162.156 0 126.918C0 103.639 10.5345 85.8388 24.0719 74.0501C34.3304 65.1168 46.6386 59.348 57.9869 57.2004C62.5575 26.8427 89.2122 0 130.349 0Z" fill="#3E63DD"/>
<path d="M126.213 150.602L151.387 150.478L192.418 183.44C195.224 185.695 193.63 190.988 190.03 190.988L178.257 191.75C176.521 191.75 174.075 189.633 172.721 188.546L126.213 150.602Z" fill="#FFC33D"/>
<path d="M80.4023 114.638V114.067C80.57 105.795 84.3941 97.2237 90.3568 90.4659C96.46 83.5529 105.091 78.3052 115.078 75.4376C125.064 72.5701 135.915 72.2225 146.16 74.4419C156.404 76.6614 165.539 81.3401 172.317 87.8404C179.1 94.3406 183.196 102.346 184.048 110.766C184.899 119.186 182.471 127.61 177.088 134.891C171.705 142.172 163.631 147.954 153.967 151.451C152.43 152.007 150.94 152.476 149.479 152.866V150.573H125.996L125.844 138.841C132.672 139.86 140.066 139.145 146.386 136.857C152.712 134.57 157.99 130.786 161.515 126.023C165.036 121.26 165.499 116.274 164.942 110.766C164.38 105.258 162.604 101.908 158.168 97.6552C153.732 93.4029 148.353 91.2666 141.652 89.8144C134.951 88.3626 127.851 88.5901 121.317 90.4659C114.784 92.342 109.138 95.7749 105.146 100.297C101.155 104.82 96.9312 114.816 96.9312 120.342L95.436 123.468C94.9014 124.586 94.0133 125.503 92.9032 126.08L89.6817 127.757L80.9053 114.812L80.4023 114.638Z" fill="#FFC33D"/>
<path d="M144.458 119.197C147.197 115.97 147.278 111.083 143.799 108.671C141.2 106.869 138.349 105.582 135.36 104.882C130.114 103.652 124.677 104.283 119.735 106.695C114.794 109.107 110.57 113.19 107.598 118.43C104.627 123.67 103.041 129.83 103.041 136.132H119.08C119.08 133.568 119.726 131.061 120.935 128.929C122.144 126.797 123.862 125.136 125.873 124.154C127.884 123.173 130.096 122.916 132.231 123.417C135.685 124.226 139.952 124.506 142.247 121.801L144.458 119.197Z" fill="#FFC33D"/>
<path d="M77.8021 176.362C75.0629 179.589 74.982 184.477 78.4609 186.888C81.0599 188.69 83.9104 189.977 86.8996 190.677C92.1455 191.907 97.583 191.276 102.524 188.864C107.466 186.453 111.69 182.369 114.661 177.129C117.633 171.889 119.219 165.729 119.219 159.427H103.179C103.179 161.991 102.534 164.498 101.325 166.63C100.116 168.762 98.3971 170.424 96.3864 171.405C94.3758 172.386 92.1633 172.643 90.0288 172.143C86.5748 171.333 82.3079 171.053 80.0122 173.758L77.8021 176.362Z" fill="#FFC33D"/>
<path d="M103.041 136.132H119.106V159.427H103.041V136.132Z" fill="#FFC33D"/>
<path d="M144.458 119.193C147.197 115.965 147.278 111.078 143.799 108.666C141.2 106.864 138.349 105.578 135.36 104.877C130.114 103.648 124.677 104.279 119.735 106.69C114.794 109.102 110.57 113.186 107.598 118.426C104.627 123.665 103.041 129.826 103.041 136.128H119.08C119.08 133.563 119.726 131.057 120.935 128.925C122.144 126.793 123.862 125.131 125.873 124.15C127.884 123.168 130.096 122.912 132.231 123.412C135.685 124.221 139.952 124.501 142.247 121.797L144.458 119.193Z" fill="#FFE629"/>
<path d="M77.8021 176.357C75.0629 179.585 74.982 184.472 78.4609 186.884C81.0599 188.686 83.9104 189.972 86.8996 190.673C92.1455 191.902 97.583 191.271 102.524 188.86C107.466 186.448 111.69 182.364 114.661 177.124C117.633 171.884 119.219 165.724 119.219 159.422H103.179C103.179 161.986 102.534 164.493 101.325 166.625C100.116 168.757 98.3971 170.419 96.3864 171.4C94.3758 172.381 92.1633 172.638 90.0288 172.138C86.5748 171.328 82.3079 171.048 80.0122 173.753L77.8021 176.357Z" fill="#FFE629"/>
<path d="M103.041 136.128H119.106V159.422H103.041V136.128Z" fill="#FFE629"/>
</svg>
