<svg width="100%" height="100%" viewBox="120 0 560 360" xmlns="http://www.w3.org/2000/svg">
  <circle cx="400" cy="180" r="160" fill="#F4F5F8"/>
  <ellipse cx="400" cy="310" rx="220" ry="16" fill="#E1E3E8"/>

  <g transform="translate(155, 120)">
    <rect x="0" y="0" width="160" height="120" rx="12" fill="#312E43"/>
    
    <circle cx="20" cy="20" r="5" fill="#ED6A5E"/>
    <circle cx="40" cy="20" r="5" fill="#F4BF4F"/>
    <circle cx="60" cy="20" r="5" fill="#61C554"/>
    
    <rect x="20" y="45" width="110" height="10" rx="5" fill="#4A4663"/>
    <rect x="20" y="65" width="80" height="10" rx="5" fill="#4A4663"/>
    <rect x="20" y="85" width="95" height="10" rx="5" fill="#4A4663"/>
  </g>

  <g transform="translate(355, 180)">
    <path d="M 0 0 L 80 0" stroke="#4ADE80" stroke-width="10" stroke-linecap="round"/>
    <path d="M 60 -20 L 85 0 L 60 20" stroke="#4ADE80" stroke-width="10" stroke-linecap="round" stroke-linejoin="round" fill="none"/>
  </g>

  <g transform="translate(475, 120)">
    <rect x="0" y="0" width="140" height="100" rx="10" fill="#4B5563"/>
    <rect x="8" y="8" width="124" height="70" rx="4" fill="#1F2937"/>
    
    <path d="M 55 100 L 85 100 L 95 120 L 45 120 Z" fill="#4B5563"/>
    <rect x="35" y="120" width="70" height="8" rx="4" fill="#4B5563"/>

    <g transform="translate(140, 0)">
      <circle cx="0" cy="0" r="28" fill="#22C55E"/>
      <path d="M -12 -2 L -4 6 L 12 -10" stroke="#FFFFFF" stroke-width="6" stroke-linecap="round" stroke-linejoin="round" fill="none"/>
    </g>
  </g>
</svg>
