<svg xmlns="http://www.w3.org/2000/svg" viewBox="0 0 800 500" width="100%" height="100%">
    <circle cx="400" cy="250" r="230" fill="#f4f6f8" />
    <ellipse cx="400" cy="420" rx="340" ry="16" fill="#000000" opacity="0.06" />

    <path d="M 150 365 L 650 365 L 690 405 L 110 405 Z" fill="#e2e8f0" />
    <path d="M 160 372 L 640 372 L 648 388 L 152 388 Z" fill="#cbd5e1" opacity="0.6" />
    <path d="M 163 377 L 637 377 M 157 382 L 643 382" stroke="#94a3b8" stroke-width="2" stroke-linecap="round" />
    <path d="M 365 391 L 435 391 L 437 402 L 363 402 Z" fill="#cbd5e1" />
    <path d="M 110 405 L 690 405 L 690 415 Q 690 420 685 420 L 115 420 Q 110 420 110 415 Z" fill="#cbd5e1" />
    <path d="M 370 405 L 430 405 L 430 408 C 430 410 427 412 423 412 L 377 412 C 373 412 370 410 370 408 Z" fill="#94a3b8" />

    <rect x="330" y="358" width="140" height="10" rx="4" fill="#475569" />

    <rect x="150" y="60" width="500" height="305" rx="18" fill="#1e293b" />
    <circle cx="400" cy="74" r="4" fill="#0f172a" />
    <rect x="165" y="88" width="470" height="262" rx="6" fill="#ffffff" />

    <path d="M 165 94 A 6 6 0 0 1 171 88 L 629 88 A 6 6 0 0 1 635 94 L 635 115 L 165 115 Z" fill="#f8fafc" />
    <circle cx="185" cy="101.5" r="5" fill="#ef4444" />
    <circle cx="205" cy="101.5" r="5" fill="#f59e0b" />
    <circle cx="225" cy="101.5" r="5" fill="#10b981" />
    <line x1="165" y1="115" x2="635" y2="115" stroke="#e2e8f0" stroke-width="1.5" />

    <g transform="translate(0, 15)">
        <circle cx="400" cy="150" r="32" fill="none" stroke="#0f172a" stroke-width="12" />

        <path d="M 305 270 C 305 200 340 190 360 190 Q 400 220 440 190 C 460 190 495 200 495 270 Q 495 290 475 290 L 325 290 Q 305 290 305 270 Z"
              fill="none" stroke="#0f172a" stroke-width="12" stroke-linecap="round" stroke-linejoin="round" />

        <polyline points="362,230 342,245 362,260" fill="none" stroke="#0f172a" stroke-width="10" stroke-linecap="round" stroke-linejoin="round" />
        <line x1="406" y1="220" x2="394" y2="270" stroke="#0f172a" stroke-width="10" stroke-linecap="round" />
        <polyline points="438,230 458,245 438,260" fill="none" stroke="#0f172a" stroke-width="10" stroke-linecap="round" stroke-linejoin="round" />
    </g>
</svg>
